<svg width="21" height="21" viewBox="0 0 21 21" fill="none" xmlns="http://www.w3.org/2000/svg">
<path fill-rule="evenodd" clip-rule="evenodd" d="M17.9749 13.5311L20.2754 4.55927C20.4007 4.07057 20.0311 3.59375 19.5262 3.59375H5.14028V1.27344C5.14028 0.846268 4.79401 0.5 4.36684 0.5H1.27344C0.846268 0.5 0.5 0.846268 0.5 1.27344C0.5 1.70061 0.846268 2.04688 1.27344 2.04688H3.5934V13.3391C3.5934 13.7662 3.93967 14.1125 4.36684 14.1125H17.2257C17.5789 14.1125 17.8872 13.8733 17.9749 13.5311ZM5.14028 5.14062H18.5295L16.6256 12.5656H5.14028V5.14062ZM8.23403 17.9797C8.23403 19.2591 7.19314 20.3 5.91372 20.3C4.6343 20.3 3.5934 19.2591 3.5934 17.9797C3.5934 16.7003 4.6343 15.6594 5.91372 15.6594C7.19314 15.6594 8.23403 16.7003 8.23403 17.9797ZM5.91372 17.2062C6.34019 17.2062 6.68715 17.5532 6.68715 17.9797C6.68715 18.4062 6.34019 18.7531 5.91372 18.7531C5.48724 18.7531 5.14028 18.4062 5.14028 17.9797C5.14028 17.5532 5.48724 17.2062 5.91372 17.2062ZM16.4747 17.9797C16.4747 19.2591 15.4338 20.3 14.1543 20.3C12.8749 20.3 11.834 19.2591 11.834 17.9797C11.834 16.7003 12.8749 15.6594 14.1543 15.6594C15.4338 15.6594 16.4747 16.7003 16.4747 17.9797ZM14.1543 17.2062C14.5808 17.2062 14.9278 17.5532 14.9278 17.9797C14.9278 18.4062 14.5808 18.7531 14.1543 18.7531C13.7279 18.7531 13.3809 18.4062 13.3809 17.9797C13.3809 17.5532 13.7279 17.2062 14.1543 17.2062Z" fill="white"/>
</svg>
