<svg width="18" height="21" viewBox="0 0 18 21" fill="none" xmlns="http://www.w3.org/2000/svg">
<path fill-rule="evenodd" clip-rule="evenodd" d="M18 17.8702V16.8101L15.9034 14.6899V8.9351C15.9034 7.35336 15.4006 5.94832 14.3949 4.71995C13.3892 3.49159 12.1193 2.69231 10.5852 2.32212V1.5649C10.5852 1.1274 10.4403 0.757212 10.1506 0.454327C9.8608 0.151442 9.47727 0 9 0C8.52273 0 8.13068 0.151442 7.82386 0.454327C7.55114 0.757212 7.41477 1.1274 7.41477 1.5649V2.32212C5.88068 2.69231 4.6108 3.49159 3.60511 4.71995C2.59943 5.94832 2.09659 7.35336 2.09659 8.9351V14.6899L0 16.8101V17.8702H18ZM2.86364 16.2548L3.27273 15.851L3.73295 15.3462V8.9351C3.73295 7.72356 4.10795 6.63822 4.85795 5.67909C5.60795 4.71995 6.5625 4.1226 7.72159 3.88702L8.94886 3.63462H9.05114C9.28977 3.63462 9.69886 3.71875 10.2784 3.88702C11.4375 4.1226 12.392 4.71995 13.142 5.67909C13.892 6.63822 14.267 7.72356 14.267 8.9351V15.3462L14.7273 15.851L15.1364 16.2548H2.86364ZM10.483 20.369C10.0739 20.7897 9.57955 21 9 21C8.42045 21 7.92614 20.7897 7.51705 20.369C7.10795 19.9483 6.90341 19.4519 6.90341 18.8798H11.0966C11.0966 19.4519 10.892 19.9483 10.483 20.369Z" fill="white"/>
</svg>
