<svg width="22" height="22" viewBox="0 0 22 22" fill="none" xmlns="http://www.w3.org/2000/svg">
<path d="M0.733316 1.46663H3.08579L5.67806 12.4854C5.11274 12.5317 4.58729 12.7951 4.21197 13.2204C3.83665 13.6457 3.64062 14.1998 3.665 14.7665C3.68937 15.3332 3.93227 15.8684 4.34273 16.2599C4.75319 16.6514 5.29931 16.8687 5.86653 16.8663H18.3329C18.5274 16.8663 18.7139 16.789 18.8514 16.6515C18.9889 16.514 19.0662 16.3274 19.0662 16.1329C19.0662 15.9385 18.9889 15.7519 18.8514 15.6144C18.7139 15.4769 18.5274 15.3996 18.3329 15.3996H5.86653C5.67204 15.3996 5.48552 15.3224 5.34799 15.1848C5.21047 15.0473 5.13321 14.8608 5.13321 14.6663C5.13321 14.4718 5.21047 14.2853 5.34799 14.1478C5.48552 14.0103 5.67204 13.933 5.86653 13.933H18.2464C18.7425 13.9343 19.2245 13.7672 19.6134 13.4591C20.0024 13.151 20.2753 12.7201 20.3876 12.2368L21.9415 5.637C22.0175 5.31404 22.0195 4.97807 21.9472 4.65425C21.875 4.33043 21.7305 4.02714 21.5244 3.76709C21.3184 3.50703 21.0562 3.29694 20.7575 3.15254C20.4588 3.00815 20.1313 2.93318 19.7995 2.93326H4.93741L4.38083 0.565387C4.34296 0.404418 4.2518 0.260973 4.12214 0.158339C3.99248 0.0557042 3.83194 -9.47214e-05 3.66658 1.20704e-07H0.733316C0.538828 1.20704e-07 0.352307 0.0772599 0.214783 0.214783C0.0772598 0.352307 0 0.538828 0 0.733316C0 0.927803 0.0772598 1.11432 0.214783 1.25185C0.352307 1.38937 0.538828 1.46663 0.733316 1.46663ZM19.7995 4.39989C19.9094 4.40199 20.0175 4.42838 20.116 4.47716C20.2145 4.52594 20.301 4.59591 20.3692 4.68205C20.4375 4.76819 20.4859 4.86837 20.5108 4.9754C20.5358 5.08244 20.5368 5.19367 20.5138 5.30114L18.9591 11.901C18.9221 12.0621 18.8313 12.2058 18.7018 12.3085C18.5723 12.4113 18.4117 12.4669 18.2464 12.4664H7.18063L5.27987 4.39989H19.7995Z" fill="#DB0D0D"/>
<path d="M13.9326 19.7995C13.9326 20.2346 14.0616 20.66 14.3034 21.0217C14.5451 21.3835 14.8887 21.6655 15.2907 21.832C15.6927 21.9985 16.135 22.0421 16.5618 21.9572C16.9885 21.8723 17.3805 21.6628 17.6882 21.3551C17.9958 21.0475 18.2054 20.6555 18.2902 20.2287C18.3751 19.802 18.3316 19.3596 18.1651 18.9576C17.9985 18.5557 17.7166 18.2121 17.3548 17.9703C16.993 17.7286 16.5677 17.5996 16.1326 17.5996C15.5491 17.5996 14.9895 17.8314 14.577 18.2439C14.1644 18.6565 13.9326 19.2161 13.9326 19.7995ZM16.8659 19.7995C16.8659 19.9446 16.8229 20.0863 16.7423 20.2069C16.6617 20.3275 16.5472 20.4215 16.4132 20.477C16.2792 20.5325 16.1317 20.547 15.9895 20.5188C15.8473 20.4905 15.7166 20.4206 15.614 20.3181C15.5115 20.2155 15.4416 20.0848 15.4133 19.9426C15.385 19.8003 15.3996 19.6529 15.4551 19.5189C15.5106 19.3849 15.6046 19.2704 15.7252 19.1898C15.8457 19.1092 15.9875 19.0662 16.1326 19.0662C16.3271 19.0662 16.5136 19.1435 16.6511 19.281C16.7886 19.4185 16.8659 19.605 16.8659 19.7995Z" fill="#DB0D0D"/>
<path d="M5.86621 19.7995C5.86621 20.2346 5.99524 20.66 6.23697 21.0217C6.4787 21.3835 6.82229 21.6655 7.22427 21.832C7.62626 21.9985 8.0686 22.0421 8.49535 21.9572C8.92209 21.8723 9.31409 21.6628 9.62176 21.3551C9.92942 21.0475 10.1389 20.6555 10.2238 20.2287C10.3087 19.802 10.2652 19.3596 10.0986 18.9576C9.93214 18.5557 9.65016 18.2121 9.28838 17.9703C8.9266 17.7286 8.50127 17.5996 8.06616 17.5996C7.4827 17.5996 6.92313 17.8314 6.51056 18.2439C6.09799 18.6565 5.86621 19.2161 5.86621 19.7995ZM8.79947 19.7995C8.79947 19.9446 8.75646 20.0863 8.67589 20.2069C8.59531 20.3275 8.48078 20.4215 8.34679 20.477C8.21279 20.5325 8.06534 20.547 7.92309 20.5188C7.78085 20.4905 7.65018 20.4206 7.54763 20.3181C7.44507 20.2155 7.37523 20.0848 7.34693 19.9426C7.31864 19.8003 7.33316 19.6529 7.38866 19.5189C7.44417 19.3849 7.53816 19.2704 7.65875 19.1898C7.77934 19.1092 7.92112 19.0662 8.06616 19.0662C8.26065 19.0662 8.44717 19.1435 8.58469 19.281C8.72221 19.4185 8.79947 19.605 8.79947 19.7995Z" fill="#DB0D0D"/>
</svg>
