<svg width="22" height="22" viewBox="0 0 22 22" fill="none" xmlns="http://www.w3.org/2000/svg">
<g clip-path="url(#clip0_1_1143)">
<path d="M21.9742 1.64235C21.9266 0.768448 21.2316 0.0735142 20.3577 0.0258189C18.5943 -0.070517 15.1437 0.0231979 11.8443 1.72979C10.1622 2.59982 8.38334 4.07489 6.9637 5.7768C6.94621 5.79777 6.92919 5.81887 6.91183 5.83988L3.69004 6.08875C3.15972 6.12974 2.68736 6.40771 2.39406 6.85132L0.196034 10.1759C-0.0264151 10.5123 -0.0617783 10.9334 0.101374 11.3022C0.264569 11.671 0.599898 11.9281 0.998433 11.9898L3.71281 12.4102C3.70323 12.463 3.6936 12.5157 3.6848 12.5685C3.59443 13.109 3.77353 13.6648 4.16394 14.0552L7.94485 17.8361C8.26853 18.1598 8.70591 18.3382 9.15407 18.3382C9.24637 18.3382 9.33918 18.3306 9.43157 18.3152C9.48433 18.3064 9.53705 18.2968 9.58982 18.2872L10.0102 21.0016C10.072 21.4002 10.329 21.7355 10.6978 21.8987C10.8512 21.9666 11.0136 22.0001 11.1752 22.0001C11.4022 22 11.6277 21.934 11.8241 21.8041L15.1487 19.606C15.5923 19.3126 15.8703 18.8403 15.9112 18.31L16.16 15.0883C16.1811 15.0709 16.2022 15.0539 16.2232 15.0364C17.9251 13.6167 19.4002 11.8378 20.2702 10.1558C21.9769 6.85617 22.0704 3.40557 21.9742 1.64235ZM14.4378 18.5307L11.2576 20.6332L10.8479 17.9879C12.1919 17.5927 13.5215 16.9598 14.7882 16.1119L14.6261 18.2107C14.616 18.3416 14.5473 18.4583 14.4378 18.5307ZM8.85634 16.9246L5.07539 13.1437C4.97893 13.0472 4.93433 12.9116 4.9562 12.781C5.0686 12.1088 5.24327 11.469 5.45949 10.8662L11.1326 16.5393C10.4086 16.7986 9.76019 16.9533 9.219 17.0438C9.0882 17.0655 8.95281 17.0211 8.85634 16.9246ZM3.78934 7.37399L5.8881 7.21187C5.04016 8.47855 4.40723 9.80813 4.01205 11.1522L1.36672 10.7425L3.46935 7.56228C3.5418 7.45271 3.65846 7.38409 3.78934 7.37399ZM15.3976 14.0464C14.3563 14.915 13.3455 15.5432 12.4139 15.9977L6.00206 9.58589C6.59752 8.36971 7.32425 7.35698 7.95357 6.60253C9.26734 5.02751 10.9013 3.6688 12.4365 2.87473C15.4647 1.30839 18.6552 1.22405 20.2875 1.3129C20.5035 1.32468 20.6754 1.49651 20.6871 1.7126C20.7761 3.3449 20.6916 6.53533 19.1253 9.56355C18.3313 11.0987 16.9725 12.7327 15.3976 14.0464Z" fill="#DB0D0D"/>
<path d="M15.0703 10.1513C15.8954 10.1512 16.7209 9.83711 17.349 9.20895C17.9577 8.6003 18.2929 7.79102 18.2929 6.93027C18.2929 6.06952 17.9577 5.26025 17.349 4.6516C16.0925 3.39506 14.0481 3.39515 12.7917 4.6516C12.183 5.26025 11.8478 6.06952 11.8478 6.93027C11.8478 7.79102 12.183 8.6003 12.7917 9.20895C13.42 9.83724 14.245 10.1514 15.0703 10.1513ZM13.7031 5.56305C14.08 5.18609 14.5751 4.99762 15.0703 4.99762C15.5654 4.99762 16.0606 5.18609 16.4375 5.56305C16.8027 5.92824 17.0038 6.41379 17.0038 6.93023C17.0038 7.44667 16.8027 7.93226 16.4375 8.29745C15.6836 9.05134 14.4569 9.0513 13.703 8.29745C13.3378 7.93226 13.1367 7.44672 13.1367 6.93027C13.1367 6.41383 13.3379 5.92824 13.7031 5.56305Z" fill="#DB0D0D"/>
<path d="M0.657449 18.1295C0.822406 18.1295 0.987363 18.0666 1.11318 17.9407L3.21748 15.8364C3.4692 15.5847 3.4692 15.1766 3.21748 14.9249C2.96582 14.6732 2.5577 14.6732 2.30599 14.9249L0.201723 17.0292C-0.0499883 17.2809 -0.0499883 17.689 0.201723 17.9407C0.327535 18.0665 0.492492 18.1295 0.657449 18.1295Z" fill="#DB0D0D"/>
<path d="M5.14596 16.8542C4.89429 16.6025 4.48617 16.6025 4.23446 16.8542L0.188783 20.8999C-0.0629277 21.1516 -0.0629277 21.5597 0.188783 21.8114C0.314639 21.9373 0.479553 22.0002 0.64451 22.0002C0.809467 22.0002 0.974424 21.9373 1.10024 21.8114L5.14592 17.7657C5.39767 17.514 5.39767 17.1059 5.14596 16.8542Z" fill="#DB0D0D"/>
<path d="M6.16321 18.7824L4.0589 20.8867C3.80719 21.1384 3.80719 21.5465 4.0589 21.7982C4.18476 21.9241 4.34971 21.987 4.51463 21.987C4.67954 21.987 4.84454 21.9241 4.97035 21.7982L7.07466 19.6939C7.32637 19.4422 7.32637 19.0341 7.07466 18.7824C6.82299 18.5307 6.41488 18.5307 6.16321 18.7824Z" fill="#DB0D0D"/>
</g>
<defs>
<clipPath id="clip0_1_1143">
<rect width="22" height="22" fill="white"/>
</clipPath>
</defs>
</svg>
