<svg width="22" height="22" viewBox="0 0 22 22" fill="none" xmlns="http://www.w3.org/2000/svg">
<path d="M11.047 12.3874C11.2095 12.3874 11.3412 12.2557 11.3412 12.0933C11.3412 11.9309 11.2095 11.7992 11.047 11.7992C10.8846 11.7992 10.7529 11.9309 10.7529 12.0933C10.7529 12.2557 10.8846 12.3874 11.047 12.3874Z" fill="#DB0D0D"/>
<path d="M11.047 13.5498C11.2095 13.5498 11.3412 13.4181 11.3412 13.2557C11.3412 13.0932 11.2095 12.9615 11.047 12.9615C10.8846 12.9615 10.7529 13.0932 10.7529 13.2557C10.7529 13.4181 10.8846 13.5498 11.047 13.5498Z" fill="#DB0D0D"/>
<path d="M13.111 10.3078L14.3816 9.14778L14.991 8.59484C16.0922 7.60189 16.6381 6.25601 16.6592 4.47484V2.97836H17.5816C17.6208 2.97931 17.6598 2.97239 17.6963 2.95803C17.7328 2.94368 17.7661 2.92216 17.7941 2.89476C17.8222 2.86735 17.8445 2.83461 17.8597 2.79846C17.8749 2.7623 17.8828 2.72347 17.8828 2.68425V1.41131C17.8828 1.3333 17.8518 1.25849 17.7966 1.20333C17.7415 1.14817 17.6667 1.11719 17.5886 1.11719H4.511C4.43299 1.11719 4.35818 1.14817 4.30303 1.20333C4.24787 1.25849 4.21688 1.3333 4.21688 1.41131V2.68425C4.21688 2.76225 4.24787 2.83706 4.30303 2.89222C4.35818 2.94738 4.43299 2.97836 4.511 2.97836H5.43335V4.47013C5.45453 6.2466 6.00276 7.59248 7.10394 8.58307L7.80982 9.22778L8.98629 10.3007C9.10863 10.3927 9.2099 10.5098 9.28335 10.6441C9.35679 10.7784 9.40072 10.9269 9.41218 11.0795C9.39711 11.237 9.34885 11.3895 9.27058 11.527C9.19231 11.6645 9.08579 11.7838 8.95806 11.8772L7.09923 13.576C5.99806 14.5666 5.45218 15.9125 5.42865 17.6937V18.9925H4.511C4.47177 18.9925 4.43294 19.0003 4.39679 19.0155C4.36064 19.0308 4.3279 19.053 4.30049 19.0811C4.27309 19.1092 4.25157 19.1424 4.23721 19.1789C4.22285 19.2154 4.21594 19.2544 4.21688 19.2937V20.5666C4.21688 20.6446 4.24787 20.7194 4.30303 20.7746C4.35818 20.8297 4.43299 20.8607 4.511 20.8607H17.5816C17.6214 20.8617 17.661 20.8546 17.698 20.8398C17.735 20.825 17.7685 20.8028 17.7967 20.7747C17.8249 20.7465 17.847 20.7129 17.8618 20.6759C17.8766 20.639 17.8837 20.5994 17.8828 20.5595V19.2937C17.8828 19.2157 17.8518 19.1408 17.7966 19.0857C17.7415 19.0305 17.6667 18.9995 17.5886 18.9995H16.6592V17.689C16.6381 15.9125 16.0922 14.5666 14.991 13.576L13.1298 11.8748C13.0033 11.7823 12.8978 11.664 12.8203 11.5278C12.7428 11.3915 12.6951 11.2403 12.6804 11.0842C12.6934 10.9318 12.7384 10.7838 12.8126 10.6499C12.8868 10.5161 12.9885 10.3995 13.111 10.3078ZM12.0922 11.0866C12.105 11.3251 12.169 11.558 12.2798 11.7695C12.3907 11.981 12.5457 12.1662 12.7345 12.3125L14.5886 14.0113C15.5769 14.9007 16.0451 16.0725 16.0639 17.6937V18.9925H6.02159V17.696C6.04276 16.0725 6.511 14.9007 7.49923 14.0113L9.35806 12.3148C9.54819 12.1674 9.70437 11.9807 9.81602 11.7676C9.92766 11.5545 9.99215 11.3198 10.0051 11.0795C9.99323 10.8466 9.93114 10.619 9.82312 10.4123C9.71509 10.2056 9.56368 10.0247 9.37923 9.8819L8.20276 8.80895L7.49688 8.16425C6.511 7.27484 6.04276 6.10307 6.02159 4.48189V2.97836H16.071V4.47013C16.0522 6.09366 15.5839 7.26542 14.5957 8.15484C14.391 8.33837 14.1886 8.52425 13.9839 8.71248L12.7063 9.8819C12.5245 10.0278 12.3758 10.2106 12.2699 10.4183C12.164 10.626 12.1035 10.8538 12.0922 11.0866Z" fill="#DB0D0D"/>
<path d="M14.9208 6.82266C14.9525 6.76787 14.9655 6.70428 14.9578 6.64147C14.9502 6.57865 14.9223 6.52003 14.8785 6.47443C14.8354 6.42775 14.7781 6.39667 14.7155 6.38602C14.653 6.37538 14.5886 6.38578 14.5326 6.4156C13.3726 7.00619 12.9373 7.22737 11.1373 6.6509C9.98353 6.27499 8.72917 6.35929 7.6361 6.88619C7.59622 6.90506 7.56109 6.93266 7.53332 6.96695C7.50556 7.00124 7.48586 7.04133 7.47569 7.08427C7.46552 7.1272 7.46514 7.17187 7.47458 7.21497C7.48402 7.25807 7.50304 7.29849 7.53022 7.33325C7.64316 7.46737 10.2032 9.92148 10.2267 9.92148C10.4165 10.1395 10.5318 10.4123 10.5561 10.7003C10.5714 10.8201 10.6323 10.9295 10.726 11.0057C10.8197 11.0819 10.9392 11.1192 11.0596 11.1097C11.1162 11.1152 11.1733 11.1095 11.2277 11.0928C11.2821 11.0761 11.3326 11.0488 11.3763 11.0125C11.4201 10.9762 11.4562 10.9316 11.4826 10.8812C11.509 10.8309 11.5252 10.7758 11.5302 10.7191C11.5755 10.3433 11.7602 9.99818 12.0479 9.75207C12.0879 9.71678 12.2526 9.55913 12.4761 9.34501C13.0267 8.81796 13.9443 7.93325 14.1961 7.71207C14.4838 7.45636 14.7285 7.15606 14.9208 6.82266Z" fill="#DB0D0D"/>
<path d="M6.99618 18.0513C6.99522 18.0909 7.00228 18.1303 7.01693 18.1672C7.03158 18.204 7.05352 18.2374 7.08142 18.2656C7.10933 18.2937 7.14264 18.3159 7.17934 18.3308C7.21604 18.3458 7.25538 18.3531 7.295 18.3525H14.8032C14.8812 18.3525 14.9561 18.3215 15.0112 18.2664C15.0664 18.2112 15.0974 18.1364 15.0974 18.0584C15.0719 17.001 14.6339 15.9955 13.8771 15.2567C13.1202 14.5178 12.1045 14.1042 11.0468 14.1042C9.98908 14.1042 8.97332 14.5178 8.21647 15.2567C7.45961 15.9955 7.02167 17.001 6.99618 18.0584V18.0513Z" fill="#DB0D0D"/>
</svg>
