<svg width="16" height="16" viewBox="0 0 16 16" fill="none" xmlns="http://www.w3.org/2000/svg">
<path d="M4.55431 3.81078C4.32393 3.5787 3.95017 3.5787 3.71979 3.81078C2.86443 4.67177 2.44402 5.87118 2.5662 7.10168C2.59668 7.40822 2.85323 7.63672 3.15284 7.63672C3.17252 7.63672 3.19237 7.63571 3.21205 7.63374C3.53646 7.60107 3.77311 7.30976 3.74066 6.98344C3.65371 6.10897 3.95038 5.25869 4.55431 4.65076C4.78487 4.4189 4.78487 4.04264 4.55431 3.81078Z" fill="white"/>
<path fill-rule="evenodd" clip-rule="evenodd" d="M0 6.72727C0 3.01784 3.01784 0 6.72727 0C10.4367 0 13.4545 3.01784 13.4545 6.72727C13.4545 10.4367 10.4367 13.4545 6.72727 13.4545C3.01784 13.4545 0 10.4367 0 6.72727ZM1.1768 6.72727C1.1768 9.78788 3.66666 12.2777 6.72727 12.2777C9.78788 12.2777 12.2777 9.78788 12.2777 6.72727C12.2777 3.66666 9.7877 1.1768 6.72727 1.1768C3.66666 1.1768 1.1768 3.66666 1.1768 6.72727Z" fill="white"/>
<path d="M15.8275 14.9957L11.5502 10.7184C11.3202 10.4884 10.9478 10.4884 10.7179 10.7184C10.4879 10.9481 10.4879 11.3209 10.7179 11.5507L14.9952 15.828C15.1102 15.943 15.2607 16.0004 15.4114 16.0004C15.5621 16.0004 15.7125 15.943 15.8275 15.828C16.0574 15.5982 16.0574 15.2254 15.8275 14.9957Z" fill="white"/>
</svg>
