<svg width="22" height="22" viewBox="0 0 22 22" fill="none" xmlns="http://www.w3.org/2000/svg">
<g clip-path="url(#clip0_1_1158)">
<path d="M5.95839 12.8337C5.70528 12.8337 5.5 12.6288 5.5 12.3754V7.79196C5.5 7.53902 5.70528 7.33374 5.95839 7.33374C6.21133 7.33374 6.41661 7.53902 6.41661 7.79196V12.3754C6.41661 12.6288 6.21133 12.8337 5.95839 12.8337Z" fill="#DB0D0D"/>
<path d="M4.1256 4.58339C2.86205 4.58339 1.83398 3.55533 1.83398 2.29161C1.83398 1.02806 2.86205 0 4.1256 0C5.38914 0 6.41721 1.02806 6.41721 2.29161C6.41721 3.55533 5.38914 4.58339 4.1256 4.58339ZM4.1256 0.916611C3.36743 0.916611 2.7506 1.53362 2.7506 2.29161C2.7506 3.04977 3.36743 3.66661 4.1256 3.66661C4.88376 3.66661 5.5006 3.04977 5.5006 2.29161C5.5006 1.53362 4.88376 0.916611 4.1256 0.916611Z" fill="#DB0D0D"/>
<path d="M3.66602 7.33374H4.58279V8.25035H3.66602V7.33374Z" fill="#DB0D0D"/>
<path d="M0.458389 12.8334C0.205276 12.8334 0 12.6284 0 12.375V8.25C0 6.73334 1.23334 5.5 2.75 5.5H12.8334C13.0868 5.5 13.2916 5.70528 13.2916 5.95839V7.79161C13.2916 8.04472 13.0868 8.25 12.8334 8.25H5.95839C5.70528 8.25 5.5 8.04472 5.5 7.79161C5.5 7.53867 5.70528 7.33339 5.95839 7.33339H12.375V6.41661H2.75C1.73889 6.41661 0.916611 7.23889 0.916611 8.25V12.375C0.916611 12.6284 0.711334 12.8334 0.458389 12.8334Z" fill="#DB0D0D"/>
<path d="M2.29221 12.833C2.03926 12.833 1.83398 12.6281 1.83398 12.3746V10.9996C1.83398 10.7467 2.03926 10.5413 2.29221 10.5413C2.54532 10.5413 2.7506 10.7467 2.7506 10.9996V12.3746C2.7506 12.6281 2.54532 12.833 2.29221 12.833Z" fill="#DB0D0D"/>
<path d="M3.66721 17.4166C2.6561 17.4166 1.83398 16.5945 1.83398 15.5834C1.83398 14.5723 2.6561 13.75 3.66721 13.75C4.67831 13.75 5.5006 14.5723 5.5006 15.5834C5.5006 16.5945 4.67831 17.4166 3.66721 17.4166ZM3.66721 14.6666C3.16165 14.6666 2.7506 15.0778 2.7506 15.5834C2.7506 16.0889 3.16165 16.5 3.66721 16.5C4.17276 16.5 4.58398 16.0889 4.58398 15.5834C4.58398 15.0778 4.17276 14.6666 3.66721 14.6666Z" fill="#DB0D0D"/>
<path d="M5.95839 22.0004H0.458389C0.205276 22.0004 0 21.7954 0 21.542V20.6254C0 20.0135 0.238342 19.4383 0.671051 19.0051C1.1041 18.5724 1.67981 18.3337 2.29161 18.3337H5.04161C5.65408 18.3337 6.22963 18.5724 6.66234 19.0051C6.84109 19.1849 6.84109 19.4744 6.66183 19.6537C6.48274 19.8324 6.19254 19.8319 6.01378 19.6532C5.75446 19.3934 5.40919 19.2504 5.04161 19.2504H2.29161C1.92453 19.2504 1.57944 19.3939 1.31961 19.6532C1.05962 19.9132 0.916611 20.2583 0.916611 20.6254V21.0837H5.95839C6.21133 21.0837 6.41661 21.2885 6.41661 21.542C6.41661 21.7954 6.21133 22.0004 5.95839 22.0004Z" fill="#DB0D0D"/>
<path d="M10.9994 17.4166C9.9883 17.4166 9.16602 16.5945 9.16602 15.5834C9.16602 14.5723 9.9883 13.75 10.9994 13.75C12.0105 13.75 12.8328 14.5723 12.8328 15.5834C12.8328 16.5945 12.0105 17.4166 10.9994 17.4166ZM10.9994 14.6666C10.4939 14.6666 10.0828 15.0778 10.0828 15.5834C10.0828 16.0889 10.4939 16.5 10.9994 16.5C11.505 16.5 11.916 16.0889 11.916 15.5834C11.916 15.0778 11.505 14.6666 10.9994 14.6666Z" fill="#DB0D0D"/>
<path d="M14.209 22.0004H7.79221C7.53926 22.0004 7.33398 21.7954 7.33398 21.542V20.6254C7.33398 20.0135 7.57233 19.4383 8.00487 19.0051C8.43808 18.5724 9.01379 18.3337 9.6256 18.3337H12.3756C12.9879 18.3337 13.5636 18.5724 13.9963 19.0051C14.4285 19.4378 14.6672 20.0135 14.6672 20.6254V21.542C14.6672 21.7954 14.4624 22.0004 14.209 22.0004ZM8.2506 21.0837H13.7506V20.6254C13.7506 20.2583 13.6071 19.9127 13.3478 19.6532C13.0883 19.3934 12.7432 19.2504 12.3756 19.2504H9.6256C9.25851 19.2504 8.91342 19.3939 8.65343 19.6532C8.3936 19.9132 8.2506 20.2583 8.2506 20.6254V21.0837Z" fill="#DB0D0D"/>
<path d="M18.3334 17.4166C17.3223 17.4166 16.5 16.5945 16.5 15.5834C16.5 14.5723 17.3223 13.75 18.3334 13.75C19.3445 13.75 20.1666 14.5723 20.1666 15.5834C20.1666 16.5945 19.3445 17.4166 18.3334 17.4166ZM18.3334 14.6666C17.8278 14.6666 17.4166 15.0778 17.4166 15.5834C17.4166 16.0889 17.8278 16.5 18.3334 16.5C18.8389 16.5 19.25 16.0889 19.25 15.5834C19.25 15.0778 18.8389 14.6666 18.3334 14.6666Z" fill="#DB0D0D"/>
<path d="M21.541 22.0004H16.041C15.7876 22.0004 15.5828 21.7954 15.5828 21.542C15.5828 21.2885 15.7876 21.0837 16.041 21.0837H21.0828V20.6254C21.0828 20.2583 20.9393 19.9127 20.6798 19.6532C20.4205 19.3934 20.0754 19.2504 19.7078 19.2504H16.9578C16.5905 19.2504 16.2449 19.3939 15.9856 19.6532C15.8064 19.8324 15.5167 19.8324 15.3376 19.6532C15.1583 19.4741 15.1583 19.1844 15.3376 19.0051C15.7703 18.5724 16.3458 18.3337 16.9578 18.3337H19.7078C20.3201 18.3337 20.8958 18.5724 21.3284 19.0051C21.7606 19.4378 21.9994 20.0135 21.9994 20.6254V21.542C21.9994 21.7954 21.7945 22.0004 21.541 22.0004Z" fill="#DB0D0D"/>
<path d="M20.6256 12.8334H7.79221C7.53926 12.8334 7.33398 12.6284 7.33398 12.375C7.33398 12.1216 7.53926 11.9166 7.79221 11.9166H20.6256C20.8785 11.9166 21.084 11.7113 21.084 11.4584V1.375C21.084 1.12239 20.8785 0.916611 20.6256 0.916611H7.79221C7.53926 0.916611 7.33398 0.711334 7.33398 0.458389C7.33398 0.205276 7.53926 0 7.79221 0H20.6256C21.3838 0 22.0006 0.616837 22.0006 1.375V11.4584C22.0006 12.2164 21.3838 12.8334 20.6256 12.8334Z" fill="#DB0D0D"/>
<path d="M19.709 11.0004H7.79221C7.53926 11.0004 7.33398 10.7951 7.33398 10.542C7.33398 10.289 7.53926 10.0837 7.79221 10.0837H19.709C19.9624 10.0837 20.1672 10.289 20.1672 10.542C20.1672 10.7951 19.9624 11.0004 19.709 11.0004Z" fill="#DB0D0D"/>
<path d="M11 1.83374H11.9166V2.75035H11V1.83374Z" fill="#DB0D0D"/>
<path d="M9.16602 1.83374H10.0828V2.75035H9.16602V1.83374Z" fill="#DB0D0D"/>
<path d="M7.33398 1.83374H8.2506V2.75035H7.33398V1.83374Z" fill="#DB0D0D"/>
</g>
<defs>
<clipPath id="clip0_1_1158">
<rect width="22" height="22" fill="white"/>
</clipPath>
</defs>
</svg>
